<svg width="215" height="36" viewBox="0 0 215 36" fill="none" xmlns="http://www.w3.org/2000/svg">
<path d="M26.059 3.43604L28.5217 10.8814H36.368L30.0108 15.5205L32.4162 22.9659L26.059 18.3841L19.7018 22.9659L22.1072 15.5205L15.8073 10.8814H23.6535L26.059 3.43604Z" fill="url(#paint0_linear_0_11)"/>
<path d="M49.4831 2.46271C49.5404 2.63452 49.5404 2.86361 49.5404 3.03543C49.5404 3.20725 49.5404 3.43633 49.5404 3.60815C49.5404 3.77997 49.4831 3.95179 49.4831 4.1236C49.4831 4.29542 49.4259 4.40996 49.3686 4.58178C49.1968 5.09723 49.0249 5.44086 49.0249 5.44086C49.0249 5.44086 48.7959 5.1545 48.5095 4.69632C48.4522 4.58178 48.3949 4.46724 48.2804 4.29542C48.2231 4.18087 48.1086 4.00906 48.0513 3.83724C47.994 3.66542 47.9368 3.55088 47.8795 3.37906C47.8222 3.20725 47.765 3.03543 47.7077 2.86361C47.6504 2.6918 47.6504 2.51998 47.6504 2.34816C47.6504 2.17635 47.5931 2.00453 47.5931 1.83271C47.5931 1.6609 47.5931 1.48908 47.5931 1.37453C47.5931 1.20272 47.5931 1.08817 47.6504 0.916356C47.7077 0.400906 47.8222 0 47.8222 0C47.8222 0 48.1086 0.229089 48.5095 0.629995C48.624 0.744539 48.6813 0.859084 48.7959 0.973629C48.9104 1.08817 48.9677 1.25999 49.0822 1.43181C49.1395 1.60362 49.254 1.77544 49.3113 1.94726C49.3686 2.0618 49.4259 2.23362 49.4831 2.46271Z" fill="#029E12"/>
<path d="M47.9941 5.21182C48.1086 5.32637 48.1659 5.38364 48.2804 5.49819C48.3377 5.61273 48.395 5.72728 48.5095 5.84182C48.6241 6.07091 48.7386 6.3 48.7959 6.52909C48.8532 6.75818 48.9104 6.92999 48.9104 7.04454C48.9104 7.15908 48.9104 7.27363 48.9104 7.27363C48.9104 7.27363 48.6241 7.27363 48.2804 7.10181C48.1086 7.04454 47.8795 6.92999 47.7077 6.81545C47.5932 6.75818 47.5359 6.7009 47.4214 6.58636C47.3068 6.52909 47.2495 6.41454 47.135 6.35727C46.9632 6.18545 46.7914 5.95636 46.6768 5.72727C46.5623 5.49819 46.4477 5.32637 46.3905 5.09728C46.3332 4.92546 46.2759 4.75365 46.2186 4.6391C46.1614 4.52456 46.1614 4.46729 46.1614 4.46729C46.1614 4.46729 46.4477 4.46729 46.7914 4.52456C47.1923 4.69637 47.5932 4.81092 47.9941 5.21182Z" fill="#029E12"/>
<path d="M49.9986 5.03998C49.9414 5.15452 49.8841 5.26907 49.8268 5.44088C49.7696 5.55543 49.7123 5.72724 49.655 5.84179C49.5405 6.12815 49.4832 6.35724 49.4832 6.58633C49.4259 6.81542 49.4259 6.98723 49.3687 7.15905C49.3687 7.27359 49.3687 7.38814 49.3687 7.38814C49.3687 7.38814 49.655 7.38814 49.9986 7.21632C50.1705 7.15905 50.3423 7.04451 50.5714 6.92996C50.6859 6.87269 50.7432 6.75814 50.8577 6.70087C50.9723 6.58633 51.0295 6.47178 51.0868 6.35724C51.2586 6.12815 51.3732 5.84179 51.4305 5.55543C51.545 5.26907 51.545 4.9827 51.6023 4.75361C51.6023 4.52453 51.6595 4.29544 51.6595 4.12362C51.6595 3.9518 51.6595 3.89453 51.6595 3.89453C51.6595 3.89453 51.4305 3.9518 51.0868 4.12362C50.6859 4.23817 50.285 4.52453 49.9986 5.03998Z" fill="#029E12"/>
<path d="M47.9941 8.47636C48.1086 8.5909 48.1659 8.70545 48.2232 8.81999C48.2804 8.93453 48.3377 9.10635 48.395 9.22089C48.4522 9.50726 48.5668 9.73635 48.5668 9.96544C48.6241 10.4236 48.5668 10.7672 48.5668 10.7672C48.5668 10.7672 48.2804 10.71 47.9368 10.5382C47.5932 10.3663 47.135 10.0227 46.8486 9.56453C46.505 9.10635 46.3904 8.5909 46.2759 8.13272C46.2186 7.90363 46.2186 7.73182 46.2186 7.61727C46.2186 7.50273 46.2186 7.38818 46.2186 7.38818C46.2186 7.38818 46.505 7.38818 46.9059 7.56C47.1923 7.78909 47.6504 8.01818 47.9941 8.47636Z" fill="#029E12"/>
<path d="M50.1703 8.59076C50.0558 8.7053 49.9985 8.81985 49.884 8.93439C49.8267 9.04893 49.7121 9.22075 49.6549 9.3353C49.5403 9.62166 49.4258 9.85075 49.3112 10.0798C49.1394 10.538 49.0822 10.8816 49.0822 10.8816C49.0822 10.8816 49.3685 10.8816 49.7694 10.8244C50.1703 10.7098 50.6858 10.538 51.0867 10.0798C51.4876 9.62166 51.7739 8.99166 51.8885 8.41894C51.9458 8.13258 52.003 7.90349 52.003 7.73167C52.003 7.55986 52.003 7.44531 52.003 7.44531C52.003 7.44531 51.7167 7.44531 51.373 7.61713C51.0294 7.84622 50.514 8.13258 50.1703 8.59076Z" fill="#029E12"/>
<path d="M47.536 11.6835C47.5932 11.7407 47.5932 11.798 47.6505 11.9126C47.6505 11.9698 47.7078 12.0271 47.7078 12.1417C47.765 12.3135 47.7651 12.428 47.8223 12.5998C47.8223 12.7716 47.8796 12.8862 47.8796 13.058C47.8796 13.1726 47.8796 13.3444 47.8796 13.4589C47.8796 13.688 47.8223 13.9171 47.8223 14.0889C47.8223 14.1462 47.8223 14.2035 47.7651 14.2607C47.7651 14.318 47.7651 14.318 47.7651 14.318C47.7651 14.318 47.4787 14.2035 47.1351 13.9171C46.7914 13.6307 46.3905 13.2871 46.1042 12.7144C46.0469 12.5998 45.9896 12.428 45.9323 12.3135C45.8751 12.1989 45.8751 12.0271 45.8178 11.9126C45.7605 11.798 45.7605 11.6262 45.7605 11.5117C45.7605 11.3971 45.7032 11.2826 45.7032 11.168C45.7032 10.9389 45.7032 10.7671 45.7032 10.5953C45.7032 10.538 45.7032 10.4808 45.7032 10.4235C45.7032 10.3662 45.7032 10.3662 45.7032 10.3662C45.7032 10.3662 45.9896 10.4235 46.3905 10.6526C46.7914 10.8244 47.1923 11.1108 47.536 11.6835Z" fill="#029E12"/>
<path d="M49.7695 12.1415C49.7122 12.1988 49.6549 12.2561 49.5977 12.3133C49.5404 12.3706 49.4831 12.4279 49.4258 12.4851C49.3113 12.5997 49.1968 12.7142 49.1395 12.8861C49.0249 13.0006 48.9677 13.1151 48.9104 13.287C48.8531 13.4015 48.7386 13.516 48.6813 13.6306C48.5668 13.8597 48.4522 14.0888 48.3949 14.2033C48.3377 14.3751 48.2804 14.4324 48.2804 14.4324C48.2804 14.4324 48.5668 14.4897 49.0249 14.4897C49.4258 14.4897 49.9986 14.3179 50.5713 13.9169C50.6858 13.8024 50.8004 13.6879 50.9149 13.5733C51.0295 13.4588 51.144 13.287 51.2013 13.1724C51.3158 13.0579 51.3731 12.886 51.4876 12.7715C51.5449 12.5997 51.6022 12.4851 51.6595 12.3706C51.774 12.0842 51.8313 11.8552 51.8885 11.6833C51.8885 11.5688 51.9458 11.5115 51.9458 11.4542C51.9458 11.397 51.9458 11.397 51.9458 11.397C51.9458 11.397 51.6595 11.397 51.2013 11.4542C50.8004 11.5115 50.2277 11.6833 49.7695 12.1415Z" fill="#029E12"/>
<path d="M46.5623 14.7763C46.6768 15.0626 46.7341 15.4063 46.7341 15.7499C46.7341 15.8072 46.7341 15.9217 46.7341 15.979C46.7341 16.0363 46.7341 16.1508 46.7341 16.2081C46.7341 16.3799 46.6769 16.4944 46.6769 16.609C46.6196 16.8953 46.5623 17.1244 46.505 17.239C46.4478 17.4108 46.3905 17.4681 46.3905 17.4681C46.3905 17.4681 46.1041 17.2963 45.8178 16.9526C45.646 16.7808 45.4741 16.609 45.3596 16.3799C45.1878 16.1508 45.0732 15.8644 44.9587 15.5781C44.9014 15.4063 44.9014 15.2917 44.8441 15.1199C44.7869 14.9481 44.7869 14.8335 44.7869 14.6617C44.7869 14.3754 44.7869 14.089 44.7869 13.8599C44.7869 13.6308 44.8441 13.4017 44.8441 13.2872C44.9014 13.1154 44.9014 13.0581 44.9014 13.0581C44.9014 13.0581 44.9587 13.1154 45.0732 13.1727C45.1878 13.2299 45.3596 13.3445 45.5314 13.459C45.9323 13.7454 46.3332 14.1463 46.5623 14.7763Z" fill="#029E12"/>
<path d="M48.8533 15.6356C48.5669 15.8074 48.2806 16.0365 48.0515 16.2656C47.9942 16.3228 47.9369 16.3801 47.8797 16.4374C47.8224 16.4947 47.7651 16.5519 47.7078 16.6092C47.5933 16.7237 47.536 16.8383 47.4215 16.9528C47.2497 17.1819 47.1351 17.3537 47.0206 17.5255C46.906 17.6401 46.8488 17.7546 46.8488 17.7546C46.8488 17.7546 47.1351 17.8692 47.5933 17.9265C47.8224 17.9265 48.1087 17.9265 48.3951 17.9265C48.6815 17.8692 48.9678 17.7546 49.3115 17.5828C49.4833 17.4683 49.5978 17.411 49.7696 17.2965C49.8842 17.1819 50.056 17.0674 50.1705 16.8956C50.3996 16.6092 50.6287 16.3228 50.8005 16.0937C50.9724 15.8074 51.0869 15.5783 51.1442 15.4065C51.2014 15.2347 51.2587 15.1201 51.2587 15.1201C51.2587 15.1201 51.2014 15.1201 51.0296 15.1201C50.9151 15.1201 50.686 15.1201 50.4569 15.1201C50.056 15.1201 49.426 15.2347 48.8533 15.6356Z" fill="#029E12"/>
<path d="M45.1305 17.6398C45.1878 17.9834 45.1878 18.327 45.1305 18.6707C45.0733 19.0143 45.016 19.3007 44.9014 19.587C44.8442 19.7016 44.7869 19.8734 44.7296 19.9307C44.6723 20.0452 44.6151 20.1598 44.6151 20.217C44.5578 20.3889 44.5005 20.4461 44.5005 20.4461C44.5005 20.4461 44.2142 20.217 43.9851 19.8161C43.8705 19.6443 43.6987 19.358 43.5842 19.1289C43.5269 19.0143 43.4696 18.8425 43.4124 18.6707C43.3551 18.4989 43.2978 18.3843 43.2978 18.2125C43.1833 17.5252 43.2978 16.8952 43.4124 16.4371C43.4696 16.208 43.5269 15.9789 43.5842 15.8643C43.5842 15.8071 43.6414 15.7498 43.6414 15.6925C43.6414 15.6353 43.6414 15.6353 43.6414 15.6353C43.6414 15.6353 43.9278 15.8071 44.2714 16.1507C44.6151 16.4943 45.016 16.9525 45.1305 17.6398Z" fill="#029E12"/>
<path d="M47.4215 18.8996C47.0779 19.0714 46.7343 19.2432 46.5052 19.4723C46.2188 19.7014 45.9325 19.9305 45.7606 20.1023C45.6461 20.2168 45.5315 20.3314 45.4743 20.3887C45.3597 20.5032 45.3025 20.5605 45.2452 20.6177C45.1306 20.7323 45.0734 20.8468 45.0734 20.8468C45.0734 20.8468 45.3597 21.0187 45.8179 21.1332C46.047 21.1905 46.3334 21.2477 46.677 21.2477C46.8488 21.2477 47.0206 21.2477 47.1924 21.1905C47.3643 21.1332 47.5361 21.1332 47.7079 21.0187C48.4524 20.7323 49.0824 20.1596 49.4833 19.6441C49.7124 19.3578 49.8842 19.1287 49.9988 18.9569C50.056 18.8423 50.1133 18.785 50.1133 18.7278C50.1706 18.6705 50.1706 18.6705 50.1706 18.6705C50.1706 18.6705 49.7124 18.6132 49.2542 18.6132C48.7388 18.5559 48.1088 18.6132 47.4215 18.8996Z" fill="#029E12"/>
<path d="M43.2977 20.2743C43.2977 20.4461 43.2977 20.6179 43.2977 20.847C43.2977 21.0188 43.2405 21.1906 43.1832 21.3625C43.0687 21.7061 42.9541 21.9925 42.7823 22.2788C42.6105 22.5652 42.4959 22.737 42.3814 22.9088C42.3241 22.9661 42.2668 23.0234 42.2668 23.0806C42.2096 23.1379 42.2096 23.1379 42.2096 23.1379C42.2096 23.1379 42.1523 23.0806 42.0378 22.9661C41.9232 22.8515 41.8659 22.6797 41.7514 22.4506C41.6368 22.2215 41.5223 21.9352 41.465 21.6488C41.4078 21.477 41.4078 21.3625 41.3505 21.1906C41.3505 21.0188 41.2932 20.847 41.2932 20.6752C41.2932 20.3316 41.3505 19.9879 41.4078 19.6443C41.465 19.3007 41.5796 19.0143 41.6941 18.7852C41.8087 18.5561 41.8659 18.327 41.9805 18.2125C42.0378 18.0979 42.095 17.9834 42.095 17.9834C42.095 17.9834 42.3814 18.2125 42.6677 18.6134C42.8396 18.7852 42.9541 19.0716 43.1259 19.3579C43.1832 19.587 43.2977 19.9307 43.2977 20.2743Z" fill="#029E12"/>
<path d="M45.4741 21.9925C45.3023 22.0498 45.0732 22.107 44.9014 22.1643C44.7295 22.2216 44.5577 22.3361 44.3859 22.3934C44.0423 22.5652 43.7559 22.737 43.4696 22.9661C43.1832 23.1379 43.0114 23.3097 42.8396 23.4243C42.7823 23.4816 42.725 23.5388 42.6677 23.5961C42.6105 23.6534 42.6105 23.6534 42.6105 23.6534C42.6105 23.6534 42.6677 23.7106 42.7823 23.8252C42.8968 23.8825 43.0686 23.997 43.355 24.1116C43.5841 24.2261 43.8705 24.2834 44.2141 24.3406C44.3859 24.3406 44.5577 24.3979 44.7295 24.3979C44.9014 24.3979 45.1305 24.3979 45.3023 24.3406C45.7032 24.2261 46.1041 24.0543 46.4477 23.8825C46.7913 23.6534 47.135 23.4243 47.3641 23.1952C47.6504 22.9661 47.8222 22.737 47.9941 22.5652C48.1659 22.3934 48.2232 22.2788 48.2232 22.2788C48.2232 22.2788 47.8795 22.107 47.3641 21.9925C47.135 21.9352 46.7913 21.8779 46.4477 21.8779C46.2186 21.8207 45.875 21.8779 45.4741 21.9925Z" fill="#029E12"/>
<path d="M45.245 26.0016C45.245 26.0016 45.1878 25.9443 45.016 25.8297C44.8441 25.7152 44.6723 25.6006 44.386 25.4861C44.0996 25.3716 43.8132 25.257 43.4123 25.1997C43.2405 25.1425 43.0687 25.1425 42.8396 25.1425C42.7251 25.1425 42.6105 25.1425 42.5532 25.1425C42.4387 25.1425 42.3242 25.1425 42.2096 25.1425C41.866 25.1425 41.5223 25.257 41.1787 25.3143C40.8351 25.3716 40.5487 25.4861 40.2051 25.6006C40.0905 25.6579 39.9187 25.7152 39.8042 25.7725C39.6896 25.8297 39.5751 25.887 39.4605 25.9443C39.2315 26.0588 39.0596 26.1161 38.9451 26.1734L38.8305 26.0588C38.9451 26.0016 39.0596 25.8297 39.2315 25.6579C39.2887 25.6006 39.4033 25.4861 39.5178 25.3716C39.6324 25.257 39.6896 25.1425 39.8042 25.0279C39.976 24.7988 40.1478 24.5125 40.3196 24.2261C40.4342 23.9398 40.5487 23.5961 40.606 23.2525C40.606 23.1379 40.606 23.0807 40.6633 22.9661C40.6633 22.8516 40.6633 22.7943 40.6633 22.6798C40.6633 22.5079 40.606 22.3361 40.606 22.1643C40.5487 21.8207 40.4342 21.5343 40.2624 21.3052C40.1478 21.0761 40.0333 20.8471 39.9187 20.7325C39.8042 20.618 39.7469 20.5034 39.7469 20.5034C39.7469 20.5034 39.6896 20.5607 39.5751 20.7325C39.4605 20.8471 39.346 21.0761 39.1742 21.3052C39.0024 21.5343 38.8305 21.8207 38.716 22.1643C38.5442 22.5079 38.4296 22.8516 38.3724 23.2525C38.2578 23.8252 38.2578 24.4552 38.3724 24.9134C38.4869 25.4288 38.6015 25.7725 38.716 26.0016C37.2842 26.9179 35.7951 27.6625 34.1915 28.2352C34.0197 28.2924 33.9051 28.4643 33.9624 28.5788C34.0197 28.6933 34.1915 28.8079 34.3633 28.6933C35.9669 28.1206 37.5706 27.3188 39.0024 26.4025C39.346 26.7461 40.2051 27.5479 41.6369 27.5479C42.0951 27.5479 42.5532 27.4334 43.0114 27.2615C43.4123 27.0897 43.8705 26.9179 44.2141 26.6888C44.5578 26.4597 44.8441 26.2879 45.016 26.1161C45.1305 26.0588 45.1878 26.0016 45.245 25.9443C45.245 26.0588 45.245 26.0016 45.245 26.0016Z" fill="#029E12"/>
<path d="M2.57717 2.46271C2.5199 2.63452 2.5199 2.86361 2.5199 3.03543C2.5199 3.20725 2.5199 3.43633 2.5199 3.60815C2.5199 3.77997 2.57717 3.95179 2.57717 4.1236C2.57717 4.29542 2.63444 4.40996 2.69171 4.58178C2.86353 5.09723 3.03535 5.44086 3.03535 5.44086C3.03535 5.44086 3.26444 5.1545 3.5508 4.69632C3.60807 4.58178 3.66534 4.46724 3.77989 4.29542C3.83716 4.18087 3.9517 4.00906 4.00898 3.83724C4.06625 3.66542 4.12352 3.55088 4.18079 3.37906C4.23806 3.20725 4.29534 3.03543 4.35261 2.86361C4.40988 2.6918 4.40988 2.51998 4.40988 2.34816C4.40988 2.17635 4.46715 2.00453 4.46715 1.83271C4.46715 1.6609 4.46715 1.48908 4.46715 1.37453C4.46715 1.20272 4.46715 1.08817 4.40988 0.916356C4.35261 0.400906 4.23806 0 4.23806 0C4.23806 0 3.89443 0.171817 3.49353 0.572722C3.37898 0.687267 3.32171 0.801812 3.20716 0.916356C3.09262 1.0309 3.03535 1.20272 2.9208 1.37453C2.80626 1.54635 2.74899 1.71817 2.69171 1.88998C2.69171 2.0618 2.63444 2.23362 2.57717 2.46271Z" fill="#029E12"/>
<path d="M4.00901 5.21182C3.89446 5.32637 3.83719 5.38364 3.72265 5.49819C3.66537 5.61273 3.6081 5.72728 3.49356 5.84182C3.37901 6.07091 3.26447 6.3 3.2072 6.52909C3.14992 6.75818 3.09265 6.92999 3.09265 7.04454C3.09265 7.15908 3.09265 7.27363 3.09265 7.27363C3.09265 7.27363 3.37901 7.27363 3.72265 7.10181C3.89446 7.04454 4.12355 6.92999 4.29537 6.81545C4.40991 6.75818 4.46718 6.7009 4.58173 6.58636C4.69627 6.52909 4.75355 6.41454 4.86809 6.35727C5.03991 6.18545 5.21172 5.95636 5.32627 5.72727C5.44081 5.49819 5.55536 5.32637 5.61263 5.09728C5.6699 4.92546 5.72717 4.75365 5.78445 4.6391C5.84172 4.52456 5.84172 4.46729 5.84172 4.46729C5.84172 4.46729 5.55536 4.46729 5.21172 4.52456C4.86809 4.69637 4.40991 4.81092 4.00901 5.21182Z" fill="#029E12"/>
<path d="M2.06177 5.03977C2.11905 5.15432 2.17632 5.26886 2.23359 5.44068C2.29086 5.55522 2.34814 5.72704 2.40541 5.84159C2.51995 6.12795 2.57722 6.35704 2.57722 6.58612C2.6345 6.81521 2.6345 6.98703 2.69177 7.15885C2.69177 7.27339 2.69177 7.38794 2.69177 7.38794C2.69177 7.38794 2.40541 7.38794 2.06177 7.21612C1.88996 7.15885 1.71814 7.0443 1.48905 6.92976C1.43178 6.75794 1.31723 6.70067 1.20269 6.58612C1.08815 6.47158 1.03087 6.35704 0.973601 6.24249C0.801785 6.0134 0.68724 5.72704 0.629968 5.44068C0.515423 5.15432 0.515423 4.86796 0.458151 4.63887C0.458151 4.40978 0.400879 4.18069 0.400879 4.00887C0.400879 3.83706 0.400879 3.77979 0.400879 3.77979C0.400879 3.77979 0.629968 3.83706 0.973601 4.00887C1.37451 4.23796 1.77541 4.52432 2.06177 5.03977Z" fill="#029E12"/>
<path d="M4.00917 8.47621C3.89462 8.59076 3.83735 8.7053 3.78008 8.81985C3.72281 8.93439 3.66553 9.10621 3.60826 9.22075C3.55099 9.50711 3.49372 9.7362 3.49372 10.0226C3.43644 10.4807 3.49372 10.8244 3.49372 10.8244C3.49372 10.8244 3.72281 10.7671 4.06644 10.5953C4.41007 10.4235 4.86825 10.0798 5.15461 9.62166C5.49824 9.16348 5.61279 8.64803 5.72733 8.18985C5.78461 7.96076 5.78461 7.78895 5.78461 7.6744C5.78461 7.55986 5.78461 7.44531 5.78461 7.44531C5.78461 7.44531 5.49825 7.44531 5.09734 7.61713C4.86825 7.78895 4.41007 8.01803 4.00917 8.47621Z" fill="#029E12"/>
<path d="M1.88998 8.59061C2.00453 8.70516 2.0618 8.8197 2.17635 8.93425C2.23362 9.04879 2.34816 9.22061 2.40543 9.33515C2.51998 9.62151 2.63452 9.8506 2.74907 10.0797C2.92088 10.5379 2.97816 10.8815 2.97816 10.8815C2.97816 10.8815 2.6918 10.8815 2.29089 10.8242C1.88998 10.7097 1.37453 10.5379 0.973628 10.0797C0.572722 9.62151 0.286361 8.99152 0.171817 8.4188C0.0572723 8.18971 0.0572722 7.96062 0 7.7888C0 7.61699 0 7.50244 0 7.50244C0 7.50244 0.286361 7.50244 0.629995 7.67426C1.0309 7.84607 1.48908 8.13244 1.88998 8.59061Z" fill="#029E12"/>
<path d="M4.52454 11.6835C4.46727 11.7407 4.46727 11.798 4.41 11.9126C4.41 11.9698 4.35273 12.0271 4.35273 12.1417C4.29545 12.3135 4.29545 12.428 4.23818 12.5998C4.23818 12.7716 4.18091 12.8862 4.18091 13.058C4.18091 13.1726 4.18091 13.3444 4.18091 13.4589C4.18091 13.688 4.23818 13.9171 4.23818 14.0889C4.23818 14.1462 4.23818 14.2035 4.29545 14.2607C4.29545 14.318 4.29545 14.318 4.29545 14.318C4.29545 14.318 4.58181 14.2035 4.92545 13.9171C5.26908 13.6307 5.66999 13.2871 5.95635 12.7144C6.01362 12.5998 6.07089 12.428 6.12816 12.3135C6.18544 12.1989 6.18544 12.0271 6.24271 11.9126C6.29998 11.798 6.29998 11.6262 6.29998 11.5117C6.29998 11.3971 6.35725 11.2826 6.35725 11.168C6.35725 10.9389 6.35725 10.7671 6.35725 10.5953C6.35725 10.538 6.35725 10.4808 6.35725 10.4235C6.35725 10.3662 6.35725 10.3662 6.35725 10.3662C6.35725 10.3662 6.07089 10.4235 5.66999 10.6526C5.26908 10.8244 4.8109 11.1108 4.52454 11.6835Z" fill="#029E12"/>
<path d="M2.29085 12.1415C2.34812 12.1988 2.40539 12.2561 2.46266 12.3133C2.51994 12.3706 2.57721 12.4279 2.63448 12.4851C2.74903 12.5997 2.86357 12.7142 2.92084 12.8861C3.03539 13.0006 3.09266 13.1151 3.14993 13.287C3.2072 13.4015 3.32175 13.516 3.37902 13.6306C3.49356 13.8597 3.60811 14.0888 3.66538 14.2033C3.72265 14.3751 3.77993 14.4324 3.77993 14.4324C3.77993 14.4324 3.49356 14.4897 3.03539 14.4897C2.63448 14.4897 2.06176 14.3179 1.48904 13.9169C1.37449 13.8024 1.25995 13.6879 1.1454 13.5733C1.03086 13.4588 0.916313 13.287 0.859041 13.1724C0.744497 13.0579 0.687224 12.886 0.57268 12.7715C0.515408 12.5997 0.458135 12.4851 0.400863 12.3706C0.286319 12.0842 0.229046 11.8552 0.171774 11.6833C0.171774 11.5688 0.114502 11.5115 0.114502 11.4542C0.114502 11.397 0.114502 11.397 0.114502 11.397C0.114502 11.397 0.400863 11.397 0.859041 11.4542C1.25995 11.5115 1.7754 11.6833 2.29085 12.1415Z" fill="#029E12"/>
<path d="M5.49799 14.7763C5.38344 15.0626 5.32617 15.4063 5.32617 15.7499C5.32617 15.8072 5.32617 15.9217 5.32617 15.979C5.32617 16.0363 5.32617 16.1508 5.32617 16.2081C5.32617 16.3799 5.38344 16.4944 5.38344 16.609C5.44072 16.8953 5.49799 17.1244 5.55526 17.239C5.61253 17.4108 5.66981 17.4681 5.66981 17.4681C5.66981 17.4681 5.95617 17.2963 6.24253 16.9526C6.41434 16.7808 6.58616 16.609 6.70071 16.3799C6.87252 16.1508 6.98707 15.8644 7.10161 15.5781C7.15888 15.4063 7.15888 15.2917 7.21616 15.1199C7.27343 14.9481 7.27343 14.8335 7.27343 14.6617C7.27343 14.3754 7.27343 14.089 7.27343 13.8599C7.27343 13.6308 7.21616 13.4017 7.21616 13.2872C7.15888 13.1154 7.15888 13.0581 7.15888 13.0581C7.15888 13.0581 7.10161 13.1154 6.98707 13.1727C6.87252 13.2299 6.70071 13.3445 6.52889 13.459C6.12798 13.7454 5.72708 14.1463 5.49799 14.7763Z" fill="#029E12"/>
<path d="M3.20719 15.6356C3.49355 15.8074 3.77991 16.0365 4.009 16.2656C4.06628 16.3228 4.12355 16.3801 4.18082 16.4374C4.23809 16.4947 4.29536 16.5519 4.35264 16.6092C4.46718 16.7237 4.52445 16.8383 4.639 16.9528C4.81081 17.1819 4.92536 17.3537 5.0399 17.5255C5.15445 17.6401 5.21172 17.7546 5.21172 17.7546C5.21172 17.7546 4.92536 17.8692 4.46718 17.9265C4.23809 17.9265 3.95173 17.9265 3.66537 17.9265C3.37901 17.8692 3.09265 17.7546 2.74901 17.5828C2.5772 17.4683 2.46265 17.411 2.29084 17.2965C2.17629 17.1819 2.00447 17.0674 1.88993 16.8956C1.66084 16.6092 1.43175 16.3228 1.25994 16.0937C1.08812 15.8074 0.973575 15.5783 0.916302 15.4065C0.85903 15.2347 0.801758 15.1201 0.801758 15.1201C0.801758 15.1201 0.85903 15.1201 1.03085 15.1201C1.14539 15.1201 1.37448 15.1201 1.60357 15.1201C2.00447 15.1201 2.63447 15.2347 3.20719 15.6356Z" fill="#029E12"/>
<path d="M6.87279 17.6398C6.81552 17.9834 6.81552 18.327 6.87279 18.6707C6.93006 19.0143 6.98733 19.3007 7.10188 19.587C7.15915 19.7016 7.21642 19.8734 7.27369 19.9307C7.33097 20.0452 7.38824 20.1598 7.38824 20.217C7.44551 20.3889 7.50278 20.4461 7.50278 20.4461C7.50278 20.4461 7.78914 20.217 8.01823 19.8161C8.13278 19.6443 8.30459 19.358 8.41914 19.1289C8.47641 19.0143 8.53368 18.8425 8.59096 18.6707C8.64823 18.4989 8.7055 18.3843 8.7055 18.2125C8.82004 17.5252 8.7055 16.8952 8.59096 16.4371C8.53368 16.208 8.47641 15.9789 8.41914 15.8643C8.41914 15.8071 8.36187 15.7498 8.36187 15.6925C8.36187 15.6353 8.36187 15.6353 8.36187 15.6353C8.36187 15.6353 8.07551 15.8071 7.73187 16.1507C7.44551 16.4943 7.0446 16.9525 6.87279 17.6398Z" fill="#029E12"/>
<path d="M4.6392 18.8996C4.98284 19.0714 5.32647 19.2432 5.55556 19.4723C5.84192 19.7014 6.12828 19.9305 6.3001 20.1023C6.41464 20.2168 6.52919 20.3314 6.58646 20.3887C6.701 20.5032 6.75828 20.5605 6.81555 20.6177C6.93009 20.7323 6.98737 20.8468 6.98737 20.8468C6.98737 20.8468 6.70101 21.0187 6.24283 21.1332C6.01374 21.1905 5.72738 21.2477 5.38374 21.2477C5.21193 21.2477 5.04011 21.2477 4.86829 21.1905C4.69648 21.1332 4.52466 21.1332 4.35284 21.0187C3.6083 20.7323 2.97831 20.1596 2.5774 19.6441C2.34831 19.3578 2.1765 19.1287 2.06195 18.9569C2.00468 18.8423 1.94741 18.785 1.94741 18.7278C1.89014 18.6705 1.89014 18.6705 1.89014 18.6705C1.89014 18.6705 2.29104 18.6132 2.80649 18.6132C3.32194 18.5559 3.95194 18.6132 4.6392 18.8996Z" fill="#029E12"/>
<path d="M8.70544 20.2743C8.70544 20.4461 8.70544 20.6179 8.70544 20.847C8.70544 21.0188 8.76272 21.1906 8.81999 21.3625C8.93453 21.7061 9.04908 21.9925 9.22089 22.2788C9.39271 22.5652 9.50726 22.737 9.6218 22.9088C9.67907 22.9661 9.73634 23.0234 9.73634 23.0806C9.79362 23.1379 9.79362 23.1379 9.79362 23.1379C9.79362 23.1379 9.85089 23.0806 9.96543 22.9661C10.08 22.8515 10.1372 22.6797 10.2518 22.4506C10.3663 22.2215 10.4809 21.9352 10.5382 21.6488C10.5954 21.477 10.5954 21.3625 10.6527 21.1906C10.6527 21.0188 10.71 20.847 10.71 20.6752C10.71 20.3316 10.6527 19.9879 10.5954 19.6443C10.5382 19.3007 10.4236 19.0143 10.3091 18.7852C10.1945 18.5561 10.1372 18.327 10.0227 18.2125C9.96543 18.0979 9.90816 17.9834 9.90816 17.9834C9.90816 17.9834 9.6218 18.2125 9.33544 18.6134C9.16362 18.7852 9.04908 19.0716 8.87726 19.3579C8.81999 19.587 8.70544 19.9307 8.70544 20.2743Z" fill="#029E12"/>
<path d="M6.5291 21.9921C6.70091 22.0494 6.93 22.1067 7.10182 22.1639C7.27364 22.2212 7.44545 22.3358 7.61727 22.393C7.9609 22.5649 8.24726 22.7367 8.53363 22.9658C8.81999 23.1376 8.9918 23.3094 9.16362 23.4239C9.22089 23.4812 9.27817 23.5385 9.33544 23.5958C9.39271 23.653 9.39271 23.653 9.39271 23.653C9.39271 23.653 9.33544 23.653 9.22089 23.7676C9.10635 23.8248 8.93453 23.9394 8.64817 24.0539C8.41908 24.1685 8.13272 24.2257 7.78909 24.283C7.61727 24.283 7.44545 24.3403 7.27364 24.3403C7.10182 24.3403 6.87273 24.3403 6.70091 24.283C6.30001 24.1685 5.8991 23.9967 5.55547 23.8248C5.21184 23.5958 4.8682 23.3667 4.63911 23.1376C4.35275 22.9085 4.18094 22.6794 4.00912 22.5076C3.8373 22.3358 3.78003 22.2212 3.78003 22.2212C3.78003 22.2212 4.06639 22.0494 4.58184 21.9349C4.81093 21.8776 5.15456 21.8203 5.4982 21.8203C5.78456 21.8203 6.18546 21.8776 6.5291 21.9921Z" fill="#029E12"/>
<path d="M6.75818 26.0016C6.75818 26.0016 6.81545 25.9443 6.98727 25.8297C7.15908 25.7152 7.3309 25.6006 7.61726 25.4861C7.90362 25.3716 8.18998 25.257 8.59089 25.1997C8.76271 25.1425 8.93452 25.1425 9.16361 25.1425C9.27816 25.1425 9.3927 25.1425 9.44997 25.1425C9.56452 25.1425 9.67906 25.1425 9.79361 25.1425C10.1372 25.1425 10.4809 25.257 10.8245 25.3143C11.1681 25.3716 11.4545 25.4861 11.7981 25.6006C11.9127 25.6579 12.0845 25.7152 12.199 25.7725C12.3136 25.8297 12.4281 25.887 12.5427 25.9443C12.7718 26.0588 12.9436 26.1161 13.0581 26.1734L13.1727 26.0588C13.0581 26.0016 12.9436 25.8297 12.7718 25.6579C12.7145 25.6006 12.5999 25.4861 12.4854 25.3716C12.3709 25.257 12.3136 25.1425 12.199 25.0279C12.0272 24.7988 11.8554 24.5125 11.6836 24.2261C11.569 23.9398 11.4545 23.5961 11.3972 23.2525C11.3972 23.1379 11.3972 23.0807 11.34 22.9661C11.34 22.8516 11.34 22.7943 11.34 22.6798C11.34 22.5079 11.3972 22.3361 11.3972 22.1643C11.4545 21.8207 11.569 21.5343 11.7409 21.3052C11.8554 21.0761 11.97 20.8471 12.0845 20.7325C12.199 20.618 12.2563 20.5034 12.2563 20.5034C12.2563 20.5034 12.3136 20.5607 12.4281 20.7325C12.5427 20.8471 12.6572 21.0761 12.829 21.3052C13.0009 21.5343 13.1727 21.8207 13.2872 22.1643C13.459 22.5079 13.5736 22.8516 13.6308 23.2525C13.7454 23.8252 13.7454 24.4552 13.6308 24.9134C13.5163 25.4288 13.4018 25.7725 13.2872 26.0016C14.719 26.9179 16.2081 27.6625 17.8117 28.2352C17.9835 28.2924 18.0981 28.4643 18.0408 28.5788C17.9835 28.6933 17.8117 28.8079 17.6399 28.6933C16.0363 28.1206 14.4327 27.3188 13.0009 26.4025C12.6572 26.7461 11.7981 27.5479 10.3663 27.5479C9.90815 27.5479 9.44997 27.4334 8.9918 27.2615C8.59089 27.0897 8.13271 26.9179 7.78908 26.6888C7.44545 26.4597 7.15908 26.2879 6.98727 26.1161C6.87272 26.0588 6.81545 26.0016 6.75818 25.9443C6.81545 26.0588 6.75818 26.0016 6.75818 26.0016Z" fill="#029E12"/>
<path d="M66.3211 7.96063H58.1885V3.20703H80.2383V7.96063H72.2202V28.5214H66.3784V7.96063H66.3211Z" fill="white"/>
<path d="M86.8244 27.4906C85.2208 26.6315 83.9036 25.4288 82.9872 23.9397C82.0709 22.3933 81.6127 20.6752 81.6127 18.7852C81.6127 16.8379 82.0709 15.1198 82.9872 13.6307C83.9036 12.0843 85.1636 10.9389 86.8244 10.0798C88.4281 9.22073 90.3181 8.81982 92.3226 8.81982C94.3844 8.81982 96.2171 9.22073 97.8207 10.0798C99.4243 10.9389 100.684 12.1416 101.601 13.6307C102.517 15.177 102.975 16.8952 102.975 18.7852C102.975 20.7325 102.517 22.4506 101.601 23.9397C100.684 25.486 99.4243 26.6315 97.8207 27.4906C96.2171 28.3497 94.3844 28.7506 92.3226 28.7506C90.2608 28.8078 88.4281 28.3497 86.8244 27.4906ZM95.8735 22.6797C96.7898 21.7061 97.248 20.3888 97.248 18.7279C97.248 17.067 96.7898 15.807 95.8735 14.7761C94.9571 13.8025 93.7544 13.2871 92.3226 13.2871C90.8908 13.2871 89.6881 13.8025 88.7144 14.7761C87.7981 15.7498 87.2826 17.067 87.2826 18.7279C87.2826 20.3888 87.7408 21.6488 88.7144 22.6797C89.6308 23.6533 90.8335 24.1688 92.3226 24.1688C93.7544 24.1688 94.9571 23.6533 95.8735 22.6797Z" fill="white"/>
<path d="M123.192 10.0222C124.681 10.8813 125.827 12.0267 126.686 13.5158C127.545 15.0049 127.946 16.7803 127.946 18.7848C127.946 20.7894 127.545 22.5648 126.686 24.0539C125.827 25.543 124.681 26.7457 123.192 27.5475C121.703 28.3493 120.042 28.8075 118.267 28.8075C115.804 28.8075 113.8 28.0057 112.425 26.4593V35.5656H106.755V9.04857H112.139V11.2822C113.513 9.62129 115.575 8.76221 118.267 8.76221C120.1 8.76221 121.703 9.16311 123.192 10.0222ZM120.844 22.6794C121.761 21.7057 122.219 20.3885 122.219 18.7276C122.219 17.0667 121.761 15.8067 120.844 14.7758C119.928 13.8022 118.725 13.2867 117.293 13.2867C115.862 13.2867 114.659 13.8022 113.742 14.7758C112.826 15.7494 112.368 17.0667 112.368 18.7276C112.368 20.3885 112.826 21.6485 113.742 22.6794C114.659 23.653 115.862 24.1684 117.293 24.1684C118.725 24.1684 119.928 23.653 120.844 22.6794Z" fill="white"/>
<path d="M133.559 28.1203C131.669 27.6048 130.18 26.8603 129.034 26.0012L131.039 21.5912C132.127 22.3931 133.387 23.0231 134.933 23.4812C136.422 23.9394 137.912 24.2258 139.401 24.2258C141.061 24.2258 142.321 23.9967 143.066 23.4812C143.868 22.9658 144.269 22.3358 144.269 21.534C144.269 20.904 144.04 20.4458 143.581 20.0449C143.123 19.644 142.493 19.3004 141.749 19.0713C141.004 18.8422 140.031 18.5558 138.771 18.2695C136.823 17.8113 135.277 17.3531 134.017 16.8949C132.814 16.4367 131.726 15.6922 130.867 14.6613C130.008 13.6304 129.55 12.3131 129.55 10.595C129.55 9.1059 129.951 7.78864 130.752 6.58592C131.554 5.3832 132.757 4.46685 134.361 3.72231C135.964 3.03504 137.912 2.69141 140.26 2.69141C141.863 2.69141 143.467 2.86322 145.013 3.26413C146.56 3.66503 147.934 4.18048 149.08 4.92502L147.247 9.39226C144.899 8.075 142.551 7.38773 140.202 7.38773C138.541 7.38773 137.339 7.67409 136.594 8.18954C135.792 8.70499 135.392 9.39226 135.392 10.3086C135.392 11.1677 135.85 11.7977 136.766 12.2559C137.682 12.6568 139.057 13.115 140.89 13.5159C142.837 13.974 144.383 14.4322 145.643 14.8904C146.846 15.3486 147.934 16.0931 148.793 17.0667C149.652 18.0404 150.11 19.4149 150.11 21.0758C150.11 22.5076 149.71 23.8249 148.908 25.0276C148.106 26.2303 146.903 27.1467 145.3 27.8912C143.696 28.5785 141.691 28.9221 139.401 28.9221C137.339 28.9221 135.449 28.693 133.559 28.1203Z" fill="#029E12"/>
<path d="M153.719 1.66064H159.389V28.5213H153.719V1.66064Z" fill="#029E12"/>
<path d="M168.38 27.4906C166.777 26.6315 165.459 25.4288 164.543 23.9397C163.627 22.3933 163.169 20.6752 163.169 18.7852C163.169 16.8379 163.627 15.1198 164.543 13.6307C165.459 12.0843 166.719 10.9389 168.38 10.0798C169.984 9.22073 171.874 8.81982 173.878 8.81982C175.883 8.81982 177.773 9.22073 179.377 10.0798C180.98 10.9389 182.24 12.1416 183.157 13.6307C184.073 15.177 184.531 16.8952 184.531 18.7852C184.531 20.7325 184.073 22.4506 183.157 23.9397C182.24 25.486 180.98 26.6315 179.377 27.4906C177.773 28.3497 175.94 28.7506 173.878 28.7506C171.817 28.7506 169.984 28.3497 168.38 27.4906ZM177.429 22.6797C178.346 21.7061 178.804 20.3888 178.804 18.7279C178.804 17.067 178.346 15.807 177.429 14.7761C176.513 13.8025 175.31 13.2871 173.878 13.2871C172.447 13.2871 171.244 13.8025 170.27 14.7761C169.354 15.7498 168.839 17.067 168.839 18.7279C168.839 20.3888 169.297 21.6488 170.27 22.6797C171.187 23.6533 172.389 24.1688 173.878 24.1688C175.31 24.1688 176.513 23.6533 177.429 22.6797Z" fill="#029E12"/>
<path d="M188.311 1.66064H193.981V28.5213H188.311V1.66064Z" fill="#029E12"/>
<path d="M201.026 28.1776C199.479 27.7767 198.276 27.2613 197.36 26.6886L199.25 22.6222C200.109 23.195 201.14 23.6531 202.4 23.9968C203.603 24.3404 204.863 24.5122 206.008 24.5122C208.414 24.5122 209.616 23.9395 209.616 22.7368C209.616 22.1641 209.273 21.7631 208.643 21.5341C208.013 21.305 206.982 21.0759 205.665 20.9041C204.061 20.675 202.744 20.3886 201.713 20.045C200.682 19.7586 199.766 19.1859 199.021 18.3841C198.276 17.5823 197.876 16.4368 197.876 15.005C197.876 13.8023 198.219 12.6569 198.964 11.7405C199.651 10.7669 200.739 10.0223 202.056 9.50689C203.431 8.99144 205.035 8.70508 206.867 8.70508C208.242 8.70508 209.616 8.87689 210.991 9.16326C212.365 9.44962 213.454 9.9078 214.37 10.4232L212.48 14.4323C210.762 13.4587 208.872 13.0005 206.867 13.0005C205.665 13.0005 204.748 13.1723 204.176 13.5159C203.546 13.8596 203.259 14.2605 203.259 14.8332C203.259 15.4632 203.603 15.8641 204.233 16.0932C204.863 16.3223 205.894 16.5514 207.325 16.7805C208.929 17.0668 210.246 17.3532 211.22 17.6395C212.251 17.9259 213.11 18.4986 213.855 19.3004C214.599 20.1023 215 21.1904 215 22.6222C215 23.825 214.656 24.9131 213.912 25.8295C213.167 26.7458 212.136 27.4904 210.762 28.0058C209.387 28.5213 207.726 28.8076 205.836 28.8076C204.118 28.8076 202.572 28.5785 201.026 28.1776Z" fill="#029E12"/>
<defs>
<linearGradient id="paint0_linear_0_11" x1="15.7857" y1="13.2019" x2="36.3565" y2="13.2019" gradientUnits="userSpaceOnUse">
<stop stop-color="#03300C"/>
<stop offset="0.0001" stop-color="#FF4116"/>
<stop offset="0.1213" stop-color="#FF4116"/>
<stop offset="0.5497" stop-color="#FF940A"/>
<stop offset="0.8526" stop-color="#FFC903"/>
<stop offset="1" stop-color="#FFDD00"/>
</linearGradient>
</defs>
</svg>
