<svg width="16" height="16" viewBox="0 0 16 16" fill="none" xmlns="http://www.w3.org/2000/svg">
<path d="M15.8838 8C15.8838 12.2812 12.3838 15.75 8.13375 15.75C3.8525 15.75 0.383753 12.2812 0.383753 8C0.383753 3.75 3.8525 0.25 8.13375 0.25C12.3838 0.25 15.8838 3.75 15.8838 8ZM7.2275 12.125L12.9775 6.375C13.165 6.1875 13.165 5.84375 12.9775 5.65625L12.2588 4.96875C12.0713 4.75 11.7588 4.75 11.5713 4.96875L6.88375 9.65625L4.665 7.46875C4.4775 7.25 4.165 7.25 3.9775 7.46875L3.25875 8.15625C3.07125 8.34375 3.07125 8.6875 3.25875 8.875L6.50875 12.125C6.69625 12.3125 7.04 12.3125 7.2275 12.125Z" fill="white"/>
</svg>
